HIERARCHY
ROOT root
{
	OFFSET	0	13.1	24.9
	CHANNELS 6  Xposition Yposition Zposition Xrotation Yrotation Zrotation
	JOINT spine_1
	{
		OFFSET	0	9.99999	0
		CHANNELS 3  Xrotation Yrotation Zrotation
		JOINT spine_2
		{
			OFFSET	0	112	-10
			CHANNELS 3  Xrotation Yrotation Zrotation
			JOINT spine_3
			{
				OFFSET	0	206.5	19.3
				CHANNELS 3  Xrotation Yrotation Zrotation
				JOINT spine_4
				{
					OFFSET	0	110.4	14.6
					CHANNELS 3  Xrotation Yrotation Zrotation
					JOINT neck_1
					{
						OFFSET	0	71.8	-50.3
						CHANNELS 3  Xrotation Yrotation Zrotation
						JOINT neck_2
						{
							OFFSET	0	86.2	-25.8
							CHANNELS 3  Xrotation Yrotation Zrotation
							JOINT head_ee
							{
								OFFSET	0	179.8	-8.7
								CHANNELS 3  Xrotation Yrotation Zrotation
								End Site
								{
									OFFSET	1	0	0
								}
							}
						}
					}
					JOINT left_clavicle
					{
						OFFSET	-43.2	22.4	-70.8
						CHANNELS 3  Xrotation Yrotation Zrotation
						JOINT left_shoulder
						{
							OFFSET	-93.9	-5.79999	48.7
							CHANNELS 3  Xrotation Yrotation Zrotation
							JOINT left_elbow
							{
								OFFSET	-291.4	-30.8	15.2
								CHANNELS 3  Xrotation Yrotation Zrotation
								JOINT left_lowarm_twist
								{
									OFFSET	-110.7	-3.89999	13.6
									CHANNELS 3  Xrotation Yrotation Zrotation
									JOINT left_hand
									{
										OFFSET	-110.7	-3.89999	13.6
										CHANNELS 3  Xrotation Yrotation Zrotation
										JOINT left_ee
										{
											OFFSET	-80.8	-5.10001	12.1
											CHANNELS 3  Xrotation Yrotation Zrotation
											End Site
											{
												OFFSET	1	0	0
											}
										}
									}
								}
							}
						}
					}
					JOINT right_clavicle
					{
						OFFSET	43.2	22.4	-70.8
						CHANNELS 3  Xrotation Yrotation Zrotation
						JOINT right_shoulder
						{
							OFFSET	93.9	-5.79999	48.7
							CHANNELS 3  Xrotation Yrotation Zrotation
							JOINT right_elbow
							{
								OFFSET	291.4	-30.8	15.2
								CHANNELS 3  Xrotation Yrotation Zrotation
								JOINT right_lowarm_twist
								{
									OFFSET	110.7	-3.89999	13.6
									CHANNELS 3  Xrotation Yrotation Zrotation
									JOINT right_hand
									{
										OFFSET	110.7	-3.89999	13.6
										CHANNELS 3  Xrotation Yrotation Zrotation
										JOINT right_ee
										{
											OFFSET	80.8	-5.10001	12.1
											CHANNELS 3  Xrotation Yrotation Zrotation
											End Site
											{
												OFFSET	1	0	0
											}
										}
									}
								}
							}
						}
					}
				}
			}
		}
	}
	JOINT left_hip
	{
		OFFSET	-82.8	-127.5	0.300001
		CHANNELS 3  Xrotation Yrotation Zrotation
		JOINT left_knee
		{
			OFFSET	-28.2	-396.7	2.2
			CHANNELS 3  Xrotation Yrotation Zrotation
			JOINT left_ankle
			{
				OFFSET	-11.7	-411.3	35.4
				CHANNELS 3  Xrotation Yrotation Zrotation
				JOINT left_toes
				{
					OFFSET	0	-60	-88.6
					CHANNELS 3  Xrotation Yrotation Zrotation
					JOINT left_foot_ee
					{
						OFFSET	-22.5	-16.5	-42.2
						CHANNELS 3  Xrotation Yrotation Zrotation
						End Site
						{
							OFFSET	1	0	0
						}
					}
				}
			}
		}
	}
	JOINT right_hip
	{
		OFFSET	82.8	-127.5	0.300001
		CHANNELS 3  Xrotation Yrotation Zrotation
		JOINT right_knee
		{
			OFFSET	28.2	-396.7	2.2
			CHANNELS 3  Xrotation Yrotation Zrotation
			JOINT right_ankle
			{
				OFFSET	11.7	-411.3	35.4
				CHANNELS 3  Xrotation Yrotation Zrotation
				JOINT right_toes
				{
					OFFSET	0	-60	-88.6
					CHANNELS 3  Xrotation Yrotation Zrotation
					JOINT right_foot_ee
					{
						OFFSET	22.5	-16.5	-42.2
						CHANNELS 3  Xrotation Yrotation Zrotation
						End Site
						{
							OFFSET	1	0	0
						}
					}
				}
			}
		}
	}
}
MOTION
Frames: 5
Frame Time: 0.02
3507.6318272 725.301 -1502.00908491 -1.92102832813 59.3775270113 -13.3956292807 1.56221 1.26598 6.99123 1.589 0.819677 7.05716 1.69266 -0.472981 7.08868 1.62321 0.649608 7.07475 -16.2508 9.98463 -5.90934 -16.694 22.509 -1.91585 -0.0 0.0 -0.0 -9.15564 23.9899 -9.86816 -6.61816 -30.6891 57.0648 2.44283 -50.4228 1.15023 -10.3281 -0.476219 1.22981 -2.21561 12.1438 -9.0394 -0.0 0.0 -0.0 11.749 10.2746 -23.7105 -5.49296 33.4663 -77.7603 0.232495 6.57002 -0.0133445 22.9875 -0.22938 2.90785 -2.21131 9.60265 19.3651 0.0 0.0 0.0 5.63358 20.8731 7.10927 -22.4497 0.258501 3.4134 35.0081 -2.67755 -4.44487 -32.7162 0.0 0.0 -0.0 0.0 -0.0 -8.77644 4.76665 12.879 -9.10598 -0.266468 -1.37061 39.2553 14.9754 5.09868 -9.32798 0.0 0.0 0.0 0.0 0.0 
3508.65577182 725.301 -1504.39268349 -1.81214953353 57.3182200797 -13.5235132371 1.56221 1.26598 6.99123 1.589 0.819677 7.05716 1.69266 -0.472981 7.08868 1.62321 0.649608 7.07475 -16.2508 9.98463 -5.90934 -16.694 22.509 -1.91585 -0.0 0.0 -0.0 -9.15564 23.9899 -9.86816 -6.61816 -30.6891 57.0648 2.44283 -50.4228 1.15023 -10.3281 -0.476219 1.22981 -2.21561 12.1438 -9.0394 -0.0 0.0 -0.0 11.749 10.2746 -23.7105 -5.49296 33.4663 -77.7603 0.232495 6.57002 -0.0133445 22.9875 -0.22938 2.90785 -2.21131 9.60265 19.3651 0.0 0.0 0.0 5.63358 20.8731 7.10927 -22.4497 0.258501 3.4134 35.0081 -2.67755 -4.44487 -32.7162 0.0 0.0 -0.0 0.0 -0.0 -8.77644 4.76665 12.879 -9.10598 -0.266468 -1.37061 39.2553 14.9754 5.09868 -9.32798 0.0 0.0 0.0 0.0 0.0 
3502.05197146 728.016 -1501.34850756 -1.92748967001 62.5433483256 -13.7136618465 1.46422 1.4603 7.02746 1.4911 1.01132 7.10559 1.62035 -0.300931 7.17055 1.54965 0.832362 7.12865 -18.9872 10.5304 -6.05873 -19.6637 23.4365 -1.25211 -0.0 0.0 -0.0 -9.67388 24.8767 -10.2509 -7.73624 -30.7042 57.6727 2.36881 -49.5552 1.09354 -10.2756 -0.473242 1.22379 -2.12416 12.4967 -8.28005 -0.0 0.0 -0.0 12.2112 12.0694 -24.7471 -2.38147 33.7695 -78.6521 0.229169 6.47686 -0.0129668 23.4363 -0.222187 2.96472 -2.39768 8.63868 20.2697 0.0 0.0 0.0 10.3276 19.7319 7.0282 -26.4701 0.163005 4.02284 34.0951 -1.99879 -4.34842 -34.428 0.0 0.0 -0.0 0.0 -0.0 -9.78588 4.4084 13.0536 -9.62426 -0.275042 -1.44968 39.2439 13.5979 5.05519 -8.14511 0.0 0.0 0.0 0.0 0.0 
3494.86159691 725.258 -1496.22735093 -3.41880467341 67.1963696268 -12.5929549341 1.72858 1.58527 7.13716 1.75618 1.12912 7.22294 1.9005 -0.16971 7.30824 1.8274 0.983537 7.24409 -21.575 11.2002 -5.75066 -22.5229 24.3377 -0.0891854 -0.0 0.0 -0.0 -10.0211 25.4545 -10.4986 -8.59247 -30.5464 58.5057 2.31336 -48.8844 1.05156 -10.2108 -0.469573 1.21635 -2.08382 12.7989 -7.87446 -0.0 0.0 -0.0 12.4861 13.3063 -25.3574 0.150613 34.063 -78.827 0.257541 7.2706 -0.0163624 23.4322 -0.222254 2.96421 -2.46543 8.31796 20.6123 0.0 0.0 0.0 14.3438 18.7245 6.42601 -28.8176 0.0875354 4.37519 33.5264 -1.66349 -4.28868 -35.7114 0.0 0.0 -0.0 0.0 -0.0 -10.5545 4.04624 13.5495 -8.00357 -0.245853 -1.20271 39.2183 12.4129 5.01923 -7.29604 0.0 0.0 0.0 0.0 0.0 
3490.51239464 722.335 -1488.48813442 -8.80455455656 74.373655582 -7.31467425608 1.83168 1.33768 7.28271 1.86073 0.872837 7.35255 1.97343 -0.437693 7.39102 1.89804 0.731829 7.36784 -18.966 11.0922 -6.55012 -19.7217 24.773 -1.45651 -0.0 0.0 -0.0 -9.83769 24.4394 -10.6695 -9.91512 -28.48 59.6025 2.08043 -45.8574 0.880119 -9.85089 -0.449368 1.17498 -1.93773 12.2632 -7.20604 -0.0 0.0 -0.0 12.5933 14.222 -25.5833 2.5279 34.4595 -77.9379 0.379856 10.6569 -0.0354286 23.574 -0.21989 2.98217 -2.57553 7.5943 21.0769 0.0 0.0 0.0 18.6854 16.4453 6.59387 -27.8797 0.11942 4.23478 30.5981 -0.156272 -3.97498 -37.4358 0.0 0.0 -0.0 0.0 -0.0 -10.5248 3.18642 12.9641 -4.78015 -0.167088 -0.714371 39.6348 10.8974 5.01656 -6.36264 0.0 0.0 0.0 0.0 0.0 
